<svg height="1024" viewBox="0 0 1024 1024" width="1024" xmlns="http://www.w3.org/2000/svg" xmlns:xlink="http://www.w3.org/1999/xlink"><linearGradient id="a" gradientUnits="userSpaceOnUse" x1="128" x2="896" y1="96" y2="928"><stop offset="0" stop-color="#28324a"/><stop offset=".52" stop-color="#1c6f7a"/><stop offset="1" stop-color="#1d3b59"/></linearGradient><linearGradient id="b" gradientUnits="userSpaceOnUse" x1="604" x2="754" y1="190" y2="342"><stop offset="0" stop-color="#eef5fb"/><stop offset="1" stop-color="#b9cce0"/></linearGradient><rect fill="url(#a)" height="896" rx="206" width="896" x="64" y="64"/><path d="m654 154v112c0 30.9 25.1 56 56 56h82z" fill="url(#b)"/><path d="m654 154v112c0 30.9 25.1 56 56 56h82" fill="none" opacity=".55" stroke="#9cb2c9" stroke-width="10"/><g fill="#8aa2ba"><rect height="24" opacity=".55" rx="12" width="256" x="326" y="418"/><rect height="24" opacity=".55" rx="12" width="364" x="326" y="502"/><rect height="24" opacity=".55" rx="12" width="292" x="326" y="586"/></g><circle cx="704" cy="704" fill="#16a67d" r="154"/><circle cx="704" cy="704" fill="none" opacity=".76" r="154" stroke="#d8fff1" stroke-width="18"/><rect fill="#fff" height="200" rx="22" width="44" x="682" y="604"/><rect fill="#fff" height="44" rx="22" width="200" x="604" y="682"/></svg>